<svg width="100" height="100" viewBox="0 0 100 100" fill="none" xmlns="http://www.w3.org/2000/svg">
<rect x="1.5" y="1.5" width="97" height="97" rx="6.5" fill="#E9E4D8"/>
<rect x="1.5" y="1.5" width="97" height="97" rx="6.5" stroke="#2E2E2E" stroke-width="3"/>
<path d="M66.0617 37.0225C67.783 32.3874 68.7512 28.0357 68.3984 24.5076C67.7234 17.7572 66.5392 25.5476 66.0617 37.0225Z" fill="#2E2E2E"/>
<path d="M14.9087 53.2227C15.495 55.568 18.577 78.9011 27.3564 73.509C36.1357 68.117 37.3237 37.6042 38.4964 24.5076C38.6443 22.8559 55.142 59.2248 45.5321 71.7501C39.0827 80.1561 70.1574 42.0971 68.3984 24.5076C66.6395 6.91812 61.4234 88.0557 74.2616 75.8542C78.1513 72.1574 84.2652 56.5059 84.2652 56.5059" stroke="#2E2E2E" stroke-width="5"/>
<path d="M82.4404 52.4203C82.7612 52.8633 83.8158 54.0605 85.1959 54.4285L87.2313 54.8426L88.4607 54.7132L88.6065 54.6917C88.6649 54.6823 88.7004 54.6798 88.7249 54.678C88.7694 54.6747 88.9075 54.6358 88.9568 54.602L89.0755 54.5203L89.085 54.6018C89.0897 54.6473 88.969 54.9292 88.867 55.1344C88.8164 55.2831 87.0168 56.9604 86.3511 58.1782C86.0435 58.7409 85.7387 59.1756 85.08 60.628L81.3593 58.1372C82.3503 56.4334 81.6903 53.0393 81.8203 52.6465L82.0562 51.932L82.4404 52.4203Z" fill="#2E2E2E"/>
<path d="M82.4404 52.4203C82.7612 52.8633 83.8158 54.0605 85.1959 54.4285L87.2313 54.8426L88.4607 54.7132L88.6065 54.6917C88.6649 54.6823 88.7004 54.6798 88.7249 54.678C88.7694 54.6747 88.9075 54.6358 88.9568 54.602L89.0755 54.5203L89.085 54.6018C89.0897 54.6473 88.969 54.9292 88.867 55.1344C88.8164 55.2831 87.0168 56.9604 86.3511 58.1782C86.0435 58.7409 85.7387 59.1756 85.08 60.628L81.3593 58.1372C82.3503 56.4334 81.6903 53.0393 81.8203 52.6465L82.0562 51.932L82.4404 52.4203Z" stroke="#2E2E2E"/>
<path fill-rule="evenodd" clip-rule="evenodd" d="M89.507 46.6236C89.7573 46.6935 90.1503 46.9733 90.3795 47.2446L90.7952 47.737L90.5264 48.1911C90.3782 48.4411 90.1576 48.7723 90.0385 48.9258C89.8949 49.1114 89.9985 49.3039 90.3497 49.5027C90.6398 49.667 90.9313 50.0269 90.9961 50.3016L91.1134 50.8001L90.1442 51.5341L89.1755 52.266L89.338 52.7934L89.5022 53.3235L88.8086 53.7154C88.4272 53.9314 87.694 54.0979 87.1805 54.0842C86.5248 54.0664 85.9191 53.8893 85.147 53.4919C84.5427 53.1807 83.7799 52.6471 83.4517 52.3052C83.1237 51.9631 82.8615 51.4152 82.8689 51.0895C82.8785 50.6886 83.0429 50.4017 83.3813 50.2016L83.8814 49.9077L84.2225 48.5402C84.4097 47.7903 84.6057 47.0664 84.6598 46.9302C84.7139 46.7966 85.0843 46.7088 85.4811 46.7375C85.9691 46.7728 86.3487 46.9533 86.6543 47.2937C86.9399 47.6119 87.0514 48.0128 86.9588 48.3861L86.811 48.9779L87.5901 47.8299C88.0175 47.2 88.5204 46.6413 88.7094 46.5895C88.898 46.538 89.2569 46.5542 89.507 46.6236ZM88.9766 50.1782C88.9161 50.1608 88.6549 50.3212 88.3978 50.5342C88.1404 50.7478 87.5832 51.325 87.1596 51.8162L86.3878 52.7098L86.5672 53.0933C86.6658 53.3054 86.8914 53.5205 87.0674 53.571C87.2437 53.6209 87.5821 53.3948 87.8197 53.0678C88.0579 52.7403 88.5963 52.1308 89.0158 51.7119L89.7794 50.9487L89.4331 50.5792C89.2432 50.3766 89.0377 50.1967 88.9766 50.1782ZM85.5877 49.9024L84.581 52.2261L84.8277 52.4937C84.9634 52.6403 85.1374 52.7813 85.2147 52.8062C85.2914 52.83 85.4966 52.7564 85.6699 52.6436C85.8433 52.5305 86.2003 51.9552 86.4623 51.3644L86.9383 50.2897L85.5877 49.9024ZM85.4547 48.1952L84.7953 48.0863L84.7921 48.5891C84.7903 48.8658 84.6741 49.5292 84.5326 50.0624L84.274 51.0322L84.5881 50.6575C84.7616 50.4519 85.0135 49.93 85.1471 49.4968C85.3064 48.9806 85.5462 48.6762 85.8408 48.6128C86.0879 48.5594 86.2493 48.4674 86.2007 48.4092C86.1514 48.3509 85.8163 48.2548 85.4547 48.1952ZM88.5545 47.7402C88.4819 47.721 88.2164 48.0135 87.9643 48.3906L87.5045 49.0784L87.7773 50.3151L88.4388 49.7126C88.8022 49.3815 89.2187 48.9366 89.3645 48.7234L89.6292 48.3345L89.1561 48.0592C88.8965 47.9069 88.6257 47.7622 88.5545 47.7402ZM86.5396 49.2458C86.224 49.1555 86.0145 49.198 86.0575 49.3411C86.1005 49.4806 86.3859 49.6663 86.6929 49.7546C87.0086 49.8451 87.2193 49.8051 87.1766 49.662C87.134 49.5224 86.8473 49.3341 86.5396 49.2458ZM89.6355 49.678C89.4908 49.6404 89.5273 49.8077 89.7164 50.0492C89.9059 50.2906 90.1421 50.5124 90.2417 50.5409C90.3413 50.5695 90.4488 50.5058 90.4789 50.4006C90.5081 50.2952 90.3898 50.1043 90.2161 49.9772C90.0418 49.8499 89.7805 49.7154 89.6355 49.678ZM85.7507 47.4513C85.3199 47.3278 85.132 47.321 85.3318 47.4365C85.5315 47.5521 85.883 47.6528 86.1138 47.6608C86.3445 47.6687 86.1816 47.5749 85.7507 47.4513ZM89.1244 46.974C88.943 46.922 88.8248 46.9797 88.8614 47.1024C88.8989 47.2254 89.1697 47.4455 89.4631 47.5909C89.7564 47.7361 90.0164 47.7816 90.0419 47.6927C90.0665 47.6036 89.9465 47.4267 89.7728 47.2996C89.5985 47.1722 89.3064 47.0262 89.1244 46.974Z" fill="#2E2E2E"/>
<path d="M95.0546 45.8928C95.111 45.9097 94.6791 46.385 94.0948 46.95C93.5106 47.5151 92.939 48.0363 92.824 48.1082C92.7098 48.1797 92.6016 48.0886 92.5828 47.9062C92.5646 47.7231 93.0899 47.1886 93.7502 46.7184C94.411 46.248 94.9975 45.8764 95.0546 45.8928Z" fill="#2E2E2E"/>
<path d="M89.8917 38.7092C89.9214 38.7611 89.3709 39.9818 88.6688 41.4219C87.9669 42.8622 87.2773 44.1936 87.1371 44.3803L86.8847 44.7177L86.4312 43.0766C86.1821 42.1747 85.9093 41.3629 85.8249 41.2726C85.7407 41.1846 85.177 41.812 84.5737 42.6676C83.9756 43.5159 83.4662 44.1742 83.434 44.1404C83.41 44.0917 83.2497 43.3352 83.0796 42.459L82.7715 40.8619L83.1983 41.7398C83.4327 42.2225 83.68 42.6346 83.7486 42.6531C83.8017 42.6645 84.1011 42.3083 84.4814 41.794L85.283 40.6777C85.6621 40.163 85.9577 39.8069 86.0055 39.8202C86.0704 39.8435 86.3081 40.5062 86.5351 41.2977L86.9518 42.7451L88.3947 40.6816C89.1874 39.5475 89.8603 38.6603 89.8917 38.7092Z" fill="#2E2E2E"/>
<path d="M93.2657 42.4035C93.3087 42.5858 93.2364 43.3312 93.1049 44.0584L92.8648 45.3793L92.7402 44.4736C92.6708 43.9764 92.5342 43.5474 92.4376 43.5191C92.3411 43.4914 91.711 43.8908 91.0376 44.4066L89.813 45.3445L90.0348 43.9771C90.1573 43.2267 90.3231 42.58 90.401 42.539C90.4784 42.4999 90.5094 42.8314 90.4712 43.278C90.4327 43.7249 90.4664 44.1089 90.5447 44.1325C90.6239 44.154 91.2514 43.6995 91.9386 43.1219C92.7872 42.4088 93.2123 42.1786 93.2657 42.4035Z" fill="#2E2E2E"/>
<path fill-rule="evenodd" clip-rule="evenodd" d="M89.507 46.6236C89.7573 46.6935 90.1503 46.9733 90.3795 47.2446L90.7952 47.737L90.5264 48.1911C90.3782 48.4411 90.1576 48.7723 90.0385 48.9258C89.8949 49.1114 89.9985 49.3039 90.3497 49.5027C90.6398 49.667 90.9313 50.0269 90.9961 50.3016L91.1134 50.8001L90.1442 51.5341L89.1755 52.266L89.338 52.7934L89.5022 53.3235L88.8086 53.7154C88.4272 53.9314 87.694 54.0979 87.1805 54.0842C86.5248 54.0664 85.9191 53.8893 85.147 53.4919C84.5427 53.1807 83.7799 52.6471 83.4517 52.3052C83.1237 51.9631 82.8615 51.4152 82.8689 51.0895C82.8785 50.6886 83.0429 50.4017 83.3813 50.2016L83.8814 49.9077L84.2225 48.5402C84.4097 47.7903 84.6057 47.0664 84.6598 46.9302C84.7139 46.7966 85.0843 46.7088 85.4811 46.7375C85.9691 46.7728 86.3487 46.9533 86.6543 47.2937C86.9399 47.6119 87.0514 48.0128 86.9588 48.3861L86.811 48.9779L87.5901 47.8299C88.0175 47.2 88.5204 46.6413 88.7094 46.5895C88.898 46.538 89.2569 46.5542 89.507 46.6236ZM88.9766 50.1782C88.9161 50.1608 88.6549 50.3212 88.3978 50.5342C88.1404 50.7478 87.5832 51.325 87.1596 51.8162L86.3878 52.7098L86.5672 53.0933C86.6658 53.3054 86.8914 53.5205 87.0674 53.571C87.2437 53.6209 87.5821 53.3948 87.8197 53.0678C88.0579 52.7403 88.5963 52.1308 89.0158 51.7119L89.7794 50.9487L89.4331 50.5792C89.2432 50.3766 89.0377 50.1967 88.9766 50.1782ZM85.5877 49.9024L84.581 52.2261L84.8277 52.4937C84.9634 52.6403 85.1374 52.7813 85.2147 52.8062C85.2914 52.83 85.4966 52.7564 85.6699 52.6436C85.8433 52.5305 86.2003 51.9552 86.4623 51.3644L86.9383 50.2897L85.5877 49.9024ZM85.4547 48.1952L84.7953 48.0863L84.7921 48.5891C84.7903 48.8658 84.6741 49.5292 84.5326 50.0624L84.274 51.0322L84.5881 50.6575C84.7616 50.4519 85.0135 49.93 85.1471 49.4968C85.3064 48.9806 85.5462 48.6762 85.8408 48.6128C86.0879 48.5594 86.2493 48.4674 86.2007 48.4092C86.1514 48.3509 85.8163 48.2548 85.4547 48.1952ZM88.5545 47.7402C88.4819 47.721 88.2164 48.0135 87.9643 48.3906L87.5045 49.0784L87.7773 50.3151L88.4388 49.7126C88.8022 49.3815 89.2187 48.9366 89.3645 48.7234L89.6292 48.3345L89.1561 48.0592C88.8965 47.9069 88.6257 47.7622 88.5545 47.7402ZM86.5396 49.2458C86.224 49.1555 86.0145 49.198 86.0575 49.3411C86.1005 49.4806 86.3859 49.6663 86.6929 49.7546C87.0086 49.8451 87.2193 49.8051 87.1766 49.662C87.134 49.5224 86.8473 49.3341 86.5396 49.2458ZM89.6355 49.678C89.4908 49.6404 89.5273 49.8077 89.7164 50.0492C89.9059 50.2906 90.1421 50.5124 90.2417 50.5409C90.3413 50.5695 90.4488 50.5058 90.4789 50.4006C90.5081 50.2952 90.3898 50.1043 90.2161 49.9772C90.0418 49.8499 89.7805 49.7154 89.6355 49.678ZM85.7507 47.4513C85.3199 47.3278 85.132 47.321 85.3318 47.4365C85.5315 47.5521 85.883 47.6528 86.1138 47.6608C86.3445 47.6687 86.1816 47.5749 85.7507 47.4513ZM89.1244 46.974C88.943 46.922 88.8248 46.9797 88.8614 47.1024C88.8989 47.2254 89.1697 47.4455 89.4631 47.5909C89.7564 47.7361 90.0164 47.7816 90.0419 47.6927C90.0665 47.6036 89.9465 47.4267 89.7728 47.2996C89.5985 47.1722 89.3064 47.0262 89.1244 46.974Z" stroke="#2E2E2E"/>
<path d="M95.0546 45.8928C95.111 45.9097 94.6791 46.385 94.0948 46.95C93.5106 47.5151 92.939 48.0363 92.824 48.1082C92.7098 48.1797 92.6016 48.0886 92.5828 47.9062C92.5646 47.7231 93.0899 47.1886 93.7502 46.7184C94.411 46.248 94.9975 45.8764 95.0546 45.8928Z" stroke="#2E2E2E"/>
<path d="M89.8917 38.7092C89.9214 38.7611 89.3709 39.9818 88.6688 41.4219C87.9669 42.8622 87.2773 44.1936 87.1371 44.3803L86.8847 44.7177L86.4312 43.0766C86.1821 42.1747 85.9093 41.3629 85.8249 41.2726C85.7407 41.1846 85.177 41.812 84.5737 42.6676C83.9756 43.5159 83.4662 44.1742 83.434 44.1404C83.41 44.0917 83.2497 43.3352 83.0796 42.459L82.7715 40.8619L83.1983 41.7398C83.4327 42.2225 83.68 42.6346 83.7486 42.6531C83.8017 42.6645 84.1011 42.3083 84.4814 41.794L85.283 40.6777C85.6621 40.163 85.9577 39.8069 86.0055 39.8202C86.0704 39.8435 86.3081 40.5062 86.5351 41.2977L86.9518 42.7451L88.3947 40.6816C89.1874 39.5475 89.8603 38.6603 89.8917 38.7092Z" stroke="#2E2E2E"/>
<path d="M93.2657 42.4035C93.3087 42.5858 93.2364 43.3312 93.1049 44.0584L92.8648 45.3793L92.7402 44.4736C92.6708 43.9764 92.5342 43.5474 92.4376 43.5191C92.3411 43.4914 91.711 43.8908 91.0376 44.4066L89.813 45.3445L90.0348 43.9771C90.1573 43.2267 90.3231 42.58 90.401 42.539C90.4784 42.4999 90.5094 42.8314 90.4712 43.278C90.4327 43.7249 90.4664 44.1089 90.5447 44.1325C90.6239 44.154 91.2514 43.6995 91.9386 43.1219C92.7872 42.4088 93.2123 42.1786 93.2657 42.4035Z" stroke="#2E2E2E"/>
<mask id="path-6-inside-1_2115_2" fill="white">
<path d="M11.1441 42.5688C11.669 42.4722 12.1293 42.7945 12.2181 43.3208L12.8396 47.0051L14.7537 46.7208L14.1322 43.0365C14.0434 42.5102 14.3705 42.043 14.8954 41.9464C15.4204 41.8498 15.8807 42.1721 15.9695 42.6985L16.591 46.3828L18.4283 46.0447L18.7391 47.8869L17.8204 48.0559L18.1312 49.898C18.442 51.7402 17.3738 53.429 15.7343 54.1376C16.2206 56.2188 16.1777 54.3658 15.1418 55.8452L14.0049 55.0491C14.7137 54.0369 14.5247 56.1917 13.8747 54.3441C12.2878 54.1612 10.9937 52.907 10.7274 51.328L10.4166 49.4859L9.49793 49.6549L9.18716 47.8127L11.0245 47.4747L10.403 43.7904C10.292 43.1325 10.6191 42.6653 11.1441 42.5688Z"/>
</mask>
<path d="M11.1441 42.5688C11.669 42.4722 12.1293 42.7945 12.2181 43.3208L12.8396 47.0051L14.7537 46.7208L14.1322 43.0365C14.0434 42.5102 14.3705 42.043 14.8954 41.9464C15.4204 41.8498 15.8807 42.1721 15.9695 42.6985L16.591 46.3828L18.4283 46.0447L18.7391 47.8869L17.8204 48.0559L18.1312 49.898C18.442 51.7402 17.3738 53.429 15.7343 54.1376C16.2206 56.2188 16.1777 54.3658 15.1418 55.8452L14.0049 55.0491C14.7137 54.0369 14.5247 56.1917 13.8747 54.3441C12.2878 54.1612 10.9937 52.907 10.7274 51.328L10.4166 49.4859L9.49793 49.6549L9.18716 47.8127L11.0245 47.4747L10.403 43.7904C10.292 43.1325 10.6191 42.6653 11.1441 42.5688Z" fill="#2E2E2E"/>
<path d="M12.2181 43.3208L-39.4566 52.0381L-39.4566 52.0381L12.2181 43.3208ZM12.8396 47.0051L20.5393 98.8412L-30.2875 106.391L-38.8351 55.7224L12.8396 47.0051ZM14.7537 46.7208L66.4284 38.0035L75.3188 90.7043L22.4534 98.5569L14.7537 46.7208ZM14.1322 43.0365L-37.5425 51.7538L-37.5425 51.7538L14.1322 43.0365ZM15.9695 42.6985L67.6442 33.9812L67.6442 33.9812L15.9695 42.6985ZM16.591 46.3828L26.0732 97.9226L-26.2362 107.546L-35.0837 55.1001L16.591 46.3828ZM18.4283 46.0447L8.94615 -5.4951L61.2556 -15.1189L70.103 37.3274L18.4283 46.0447ZM18.7391 47.8869L70.4138 39.1696L79.0028 90.084L28.2213 99.4267L18.7391 47.8869ZM17.8204 48.0559L-33.8542 56.7732L-42.4433 5.85876L8.33824 -3.48393L17.8204 48.0559ZM18.1312 49.898L-33.5435 58.6153L-33.5435 58.6153L18.1312 49.898ZM15.7343 54.1376L-35.2954 66.0639L-45.2638 23.4119L-5.05726 6.03381L15.7343 54.1376ZM15.1418 55.8452L58.0693 85.9034L28.0112 128.831L-14.9163 98.7727L15.1418 55.8452ZM14.0049 55.0491L-16.0532 97.9767L-58.9807 67.9185L-28.9226 24.991L14.0049 55.0491ZM13.8747 54.3441L19.8739 2.28378L52.4333 6.03575L63.3098 36.9533L13.8747 54.3441ZM10.7274 51.328L-40.9473 60.0453L-40.9473 60.0453L10.7274 51.328ZM10.4166 49.4859L0.934445 -2.05397L53.2438 -11.6777L62.0913 40.7686L10.4166 49.4859ZM9.49793 49.6549L18.9801 101.195L-33.3293 110.818L-42.1768 58.3722L9.49793 49.6549ZM9.18716 47.8127L-42.4875 56.53L-51.0766 5.61563L-0.295061 -3.72708L9.18716 47.8127ZM11.0245 47.4747L62.6992 38.7574L71.2882 89.6718L20.5067 99.0145L11.0245 47.4747ZM10.403 43.7904L62.0777 35.0731L62.0777 35.0731L10.403 43.7904ZM11.1441 42.5688L1.66187 -8.97106C30.9502 -14.3595 58.939 5.23848 63.8928 34.6035L12.2181 43.3208L-39.4566 52.0381C-34.6804 80.3505 -7.61222 99.3038 20.6263 94.1086L11.1441 42.5688ZM12.2181 43.3208L63.8928 34.6035L64.5143 38.2878L12.8396 47.0051L-38.8351 55.7224L-39.4566 52.0381L12.2181 43.3208ZM12.8396 47.0051L5.13996 -4.83099L7.05401 -5.1153L14.7537 46.7208L22.4534 98.5569L20.5393 98.8412L12.8396 47.0051ZM14.7537 46.7208L-36.921 55.4381L-37.5425 51.7538L14.1322 43.0365L65.8068 34.3192L66.4284 38.0035L14.7537 46.7208ZM14.1322 43.0365L-37.5425 51.7538C-42.3954 22.987 -23.2785 -4.31475 5.41325 -9.5934L14.8954 41.9464L24.3776 93.4862C52.0195 88.4007 70.4821 62.0334 65.8068 34.3192L14.1322 43.0365ZM14.8954 41.9464L5.41325 -9.5934C34.7016 -14.9818 62.6904 4.61615 67.6442 33.9812L15.9695 42.6985L-35.7052 51.4158C-30.929 79.7281 -3.86084 98.6815 24.3776 93.4862L14.8954 41.9464ZM15.9695 42.6985L67.6442 33.9812L68.2657 37.6655L16.591 46.3828L-35.0837 55.1001L-35.7052 51.4158L15.9695 42.6985ZM16.591 46.3828L7.10882 -5.15706L8.94615 -5.4951L18.4283 46.0447L27.9105 97.5845L26.0732 97.9226L16.591 46.3828ZM18.4283 46.0447L70.103 37.3274L70.4138 39.1696L18.7391 47.8869L-32.9356 56.6042L-33.2463 54.762L18.4283 46.0447ZM18.7391 47.8869L28.2213 99.4267L27.3027 99.5957L17.8204 48.0559L8.33824 -3.48393L9.2569 -3.65295L18.7391 47.8869ZM17.8204 48.0559L69.4951 39.3386L69.8059 41.1807L18.1312 49.898L-33.5435 58.6153L-33.8542 56.7732L17.8204 48.0559ZM18.1312 49.898L69.8059 41.1807C74.5802 69.482 57.7288 93.077 36.5258 102.241L15.7343 54.1376L-5.05726 6.03381C-22.9813 13.781 -37.6963 33.9983 -33.5435 58.6153L18.1312 49.898ZM15.7343 54.1376L66.7639 42.2113C66.489 41.0348 66.1056 39.6719 65.6199 38.2402C65.3643 37.4866 65.7188 38.5325 65.7526 38.6342C65.8342 38.8796 66.095 39.6662 66.3876 40.682C66.62 41.4893 67.2951 43.8668 67.79 46.9837C68.1378 49.1737 69.419 57.359 66.9835 67.4773C65.6089 73.1877 62.8528 80.3704 57.4133 87.3708C51.8044 94.5892 44.8093 99.7167 37.631 102.964C24.974 108.691 13.8009 107.645 11.1382 107.396C7.43036 107.049 4.53339 106.351 4.31617 106.301C2.35057 105.851 8.88062 107.648 16.2013 107.608C24.0679 107.564 31.5009 105.746 38.0458 102.667C49.8082 97.1346 56.009 88.8459 58.0693 85.9034L15.1418 55.8452L-27.7857 25.787C-25.2074 22.1048 -18.6128 13.493 -6.56623 7.82641C0.120838 4.6809 7.66853 2.84332 15.6241 2.79951C23.034 2.7587 29.6275 4.57419 27.7016 4.13337C27.4943 4.08592 24.6058 3.38896 20.9049 3.04259C18.2492 2.79404 7.08169 1.7484 -5.57128 7.47286C-12.7475 10.7195 -19.7409 15.8458 -25.3485 23.0625C-30.7866 30.0611 -33.5418 37.2417 -34.9157 42.9494C-37.35 53.0625 -36.0689 61.2407 -35.7226 63.4212C-35.2292 66.5285 -34.5571 68.8942 -34.3288 69.6867C-34.0405 70.6878 -33.7852 71.4569 -33.7106 71.6816C-33.6906 71.7418 -33.3551 72.7332 -33.6348 71.9085C-34.2168 70.1928 -34.7773 68.2811 -35.2954 66.0639L15.7343 54.1376ZM15.1418 55.8452L-14.9163 98.7727L-16.0532 97.9767L14.0049 55.0491L44.0631 12.1216L45.2 12.9177L15.1418 55.8452ZM14.0049 55.0491L-28.9226 24.991C-27.2237 22.5647 -22.8244 16.6048 -15.1492 11.4086C-7.52276 6.24555 11.936 -3.29643 35.0326 6.6103C55.9507 15.5826 62.9554 33.5718 65.0017 41.0684C67.3827 49.7909 67.3486 58.4669 65.6278 66.2806C64.7215 70.3961 63.0369 75.6886 59.8037 81.2852C56.6208 86.7948 50.9287 94.2909 41.3889 100.026C31.0567 106.237 18.8518 108.729 6.8205 106.986C-4.28683 105.376 -12.3801 100.615 -17.1984 96.9969C-26.0526 90.3481 -30.4348 82.6381 -31.813 80.1343C-33.7327 76.6471 -34.9056 73.5961 -35.5604 71.7348L13.8747 54.3441L63.3098 36.9533C62.8175 35.554 61.7927 32.8398 60.005 29.5923C58.7588 27.3283 54.4925 19.761 45.7363 13.1858C40.967 9.60455 32.9183 4.86298 21.8509 3.25926C9.85949 1.52166 -2.31021 4.00543 -12.612 10.1985C-22.1214 15.9152 -27.7882 23.3828 -30.9506 28.8571C-34.1634 34.4185 -35.8328 39.669 -36.7291 43.7392C-38.4299 51.4622 -38.4653 60.0346 -36.1086 68.6684C-34.0865 76.0763 -27.1289 93.9918 -6.28263 102.933C16.7422 112.809 36.1045 103.279 43.6082 98.1994C51.1606 93.0864 55.4108 87.2805 56.9325 85.1073L14.0049 55.0491ZM13.8747 54.3441L7.87559 106.404C-17.4536 103.486 -36.8961 84.0604 -40.9473 60.0453L10.7274 51.328L62.402 42.6107C58.8835 21.7535 42.0292 4.83683 19.8739 2.28378L13.8747 54.3441ZM10.7274 51.328L-40.9473 60.0453L-41.2581 58.2032L10.4166 49.4859L62.0913 40.7686L62.402 42.6107L10.7274 51.328ZM10.4166 49.4859L19.8987 101.026L18.9801 101.195L9.49793 49.6549L0.0157773 -1.88496L0.934445 -2.05397L10.4166 49.4859ZM9.49793 49.6549L-42.1768 58.3722L-42.4875 56.53L9.18716 47.8127L60.8619 39.0954L61.1726 40.9376L9.49793 49.6549ZM9.18716 47.8127L-0.295061 -3.72708L1.54227 -4.06511L11.0245 47.4747L20.5067 99.0145L18.6694 99.3525L9.18716 47.8127ZM11.0245 47.4747L-40.6502 56.192L-41.2717 52.5077L10.403 43.7904L62.0777 35.0731L62.6992 38.7574L11.0245 47.4747ZM10.403 43.7904L-41.2717 52.5077C-43.0713 41.8403 -41.989 27.9753 -33.754 14.9557C-25.3211 1.62331 -12.0572 -6.44705 1.66187 -8.97106L11.1441 42.5688L20.6263 94.1086C33.8204 91.6811 46.6582 83.8927 54.8241 70.9824C62.792 58.3851 63.7662 45.0826 62.0777 35.0731L10.403 43.7904Z" fill="#2E2E2E" mask="url(#path-6-inside-1_2115_2)"/>
<path d="M63.0911 34.7177L62.7926 51.1751" stroke="#E9E4D8" stroke-width="1.0481"/>
<path d="M69.0601 28.0879L69.0816 37.9153" stroke="#E9E4D8" stroke-width="1.0481" stroke-linecap="round"/>
<path d="M48.0056 63.6877C47.8814 63.9491 47.9927 64.2617 48.2541 64.3859C48.5155 64.5101 48.8281 64.3988 48.9523 64.1374L48.479 63.9126L48.0056 63.6877ZM52 56.5L51.5266 56.2751L48.0056 63.6877L48.479 63.9126L48.9523 64.1374L52.4734 56.7249L52 56.5Z" fill="#E9E4D8"/>
</svg>
